<svg id="圖層_1" data-name="圖層 1" xmlns="http://www.w3.org/2000/svg" viewBox="0 0 1334.59 484.85"><defs><style>.cls-1{fill:#010101;}</style></defs><path d="M292.42,352.23c15.75-2.61,30.13-4.84,43.79-10,37.23-14.1,56.18-42.23,61.55-80.56,3.58-25.63,3.59-51.19-11.26-73.59-7-10.56-10.92-19.45-7.48-32.64,3.34-12.8.36-26.37-3.71-39.31-1.71-5.45-4.43-7.08-9.81-6.63-18.09,1.52-33.6,9.67-48.46,19-6.32,4-11.83,5.08-19.25,3.27-31.7-7.72-63.67-7.56-95.45-.48-8.46,1.88-15.09,1.43-22.64-3.61-13.86-9.24-28.94-16.25-46-18-6.23-.65-9.19,1.14-10.94,7.35-4.53,16.05-6.3,32.09-1.75,48.31,1.42,5.07,1.06,8.66-2.64,12.89-32.06,36.71-22,116.2,12,145.11,18.22,15.47,39.51,22.9,62.51,26.79,3.86.66,7.73,1.25,12.34,2-7.19,8.44-11.88,17.46-13.41,27.85-.54,3.72-3.21,4.66-6.09,5.77-24.84,9.62-47.75,2.36-62.37-20.16-5.87-9-12.61-17-22.31-22a29.36,29.36,0,0,0-18.45-3.33c-2.57.42-6,.23-6.77,3.52-.72,3,1.52,5.09,3.67,6.81,4.71,3.78,10,7,14.15,11.26A69,69,0,0,1,109.31,386c8.41,23.33,26.42,31.61,49.26,33A93.28,93.28,0,0,0,183,417.46c5.21-1.07,7.6-.29,7.3,6-.53,11.18,0,22.4,0,33.61-.06,12.65-6.86,17.51-19,13.41a225.58,225.58,0,0,1-76.57-44c-106.71-93-110-254.61-6.39-351C139,28.34,199.85,8,269.12,13.5c103.1,8.22,192.33,85.85,212,194.32,20.1,110.54-46.28,224.84-152.73,262.12-14.65,5.13-21.28.31-21.15-15.26.18-21.18.56-42.36.26-63.54C307.35,376.93,303.45,363.72,292.42,352.23Z"/><path class="cls-1" d="M744.16,189c12.76-.21,23.36,10.49,23.48,23.7a23.76,23.76,0,0,1-23.15,24.1c-12.63.23-23.73-10.49-24.13-23.32A24,24,0,0,1,744.16,189Z"/><path d="M701.74,320c0,14.84-.22,29.68.13,44.51.12,4.93-1.37,7.71-5.8,9.83-33.88,16.26-68.38,17.29-102.74,2.72-20.52-8.71-32.36-26.21-38.05-47.15a174.43,174.43,0,0,1,1.79-99.34c10-31.93,32.71-49.49,65.69-52.78,20.52-2,41.12-1,61.15,5.19,7.56,2.35,11.33,5.8,8.08,14.37a82.18,82.18,0,0,0-4.4,18.47c-1,7.32-4.09,7.95-10.47,5.83-12.5-4.17-25.59-4.92-38.64-4-23.87,1.69-36.87,12.83-42.42,36.32-5.24,22.23-5,44.52,2.57,66.16C606.31,342,634.78,353.79,656,345c3.34-1.39,2.7-3.54,2.72-5.77.07-9.69-.18-19.39.12-29.07.14-4.47-1.45-5.79-5.73-5.54-5.44.32-10.93-.17-16.37.15-4.91.29-6.31-1.79-6.17-6.39.26-8.47.21-17,0-25.43-.1-4.61,1.6-6.5,6.36-6.47q29.12.24,58.23,0c5.18,0,6.75,2.14,6.67,7.15C701.59,289.09,701.74,304.53,701.74,320Z"/><path d="M1033.82,283.62c0,30-.27,59.94.19,89.91.12,7.77-2.3,9.91-9.73,9.35a194.56,194.56,0,0,0-25.44,0c-6,.33-7.8-1.58-7.71-7.62.33-23.3-.1-46.62.29-69.93.1-6.37-1.59-8.27-8-8-13,.52-26.09.61-39.1,0-7.61-.37-10.37,1.15-10.09,9.61.72,22.08,0,44.2.39,66.29.13,7.44-2,10.3-9.72,9.71-8.74-.66-17.58-.34-26.36-.08-4.76.14-7.2-.84-7.19-6.4q.23-92.64,0-185.28c0-5.34,2.15-6.77,7.08-6.62,9.09.27,18.22.5,27.28-.06,6.91-.43,9,2.15,8.86,8.77-.3,19.37.14,38.76-.25,58.13-.12,6,1.57,7.72,7.55,7.53,13.93-.43,27.91-.54,41.83,0,6.79.28,7.82-2.27,7.71-8.24-.36-19.07.23-38.16-.32-57.22-.21-7.54,2.42-9.44,9.41-9a200.11,200.11,0,0,0,25.45,0c6.68-.43,8,2.28,8,8.35C1033.68,223.06,1033.82,253.34,1033.82,283.62Z"/><path d="M1145.16,374.18c-19.26,11.28-39.86,15.38-61.86,10.65-17.47-3.75-27.28-14.11-30.13-31.81-2.71-16.84-1-33.82-1.28-50.74-.28-15.42.2-30.86-.19-46.28-.16-6.43,2-8.48,8.36-8.13a222.73,222.73,0,0,0,26.35,0c6.76-.42,8.85,1.7,8.75,8.59-.4,25.41-.16,50.83-.16,76.24,0,7.44.21,14.79,8.81,18,7.08,2.67,24.57-.27,28.69-4.85,2.07-2.31,1.18-5.18,1.19-7.8.06-27.23.26-54.46-.12-81.68-.09-6.91,2-9,8.77-8.55,9.06.58,18.18.36,27.26.06,5.06-.16,7,1.53,7,6.72-.14,40.54-.06,81.08-.12,121.62,0,1.74-.17,4.64-1.1,5-8.06,3.4-16.59,1.16-24.92,1.39C1145.08,382.82,1147,377.3,1145.16,374.18Z"/><path d="M800.67,317.24c0-10.47-.22-19.26.09-28,.16-4.61-1.11-6.17-6-6.28-16.17-.37-15.49-.64-16.41-16.29-.57-9.67,2.07-14.78,12-15.3,8.8-.45,11-5.29,10.54-13.71-.45-9.18-4.22-21.13,1.71-27,5.55-5.47,17.33-1.4,26.36-1.57,13.9-.26,13.92-.07,14.08,13.73.06,4.84.67,9.78-.12,14.48-1.59,9.41,2.67,10.7,10.91,10.45,19.49-.61,19.51-.19,19.51,19.14,0,16.19,0,16.19-16.18,16.19-14.43,0-14.39,0-14.26,14.42.11,11.79,0,23.58.17,35.36.2,14.55,4.78,19,19,18.86,11.88-.12,11.88-.12,11.88,12v2.72c0,17.8-.51,18.52-18.23,19.67a86,86,0,0,1-18.15-.41c-22.54-3.31-33.15-14.72-36.15-37.52C800.07,337.32,801.12,326.43,800.67,317.24Z"/><path d="M765.2,315.76c0,19.37-.21,38.73.12,58.09.11,6.45-1.43,9.45-8.55,9-8.75-.55-17.57-.36-26.35-.05-5.6.2-8.36-1.38-8.33-7.56q.24-60.36,0-120.7c0-5,1.71-7.17,6.85-7.07,9.69.21,19.39.29,29.08,0,5.65-.19,7.31,2.12,7.25,7.5C765.07,275.23,765.2,295.5,765.2,315.76Z"/><path d="M1322,287.1c-5.83-32.48-26.14-46.87-59-42.89-8.63,1-16.48,4.63-24.92,7.54,0-20-.2-39,.11-58,.11-6.73-1.35-10-9-9.37a148.7,148.7,0,0,1-24.52,0c-7.55-.58-9.69,1.91-9.64,9.52.32,55.66.17,111.33.17,167,0,21.82,0,21.58,21.59,21.92,6.69.1,11.44-.7,11-9.38l15.58,7.72c4.94,2.46,10.29,3.54,15.65,4.46,32.92,5.61,54.12-7.07,61.17-37.33A151,151,0,0,0,1322,287.1Zm-42.5,49.45c-2.29,11.46-7.43,15-19,15.18a42.63,42.63,0,0,1-7.24-.31c-14.94-2.39-16.12-3.81-16.12-18.79V314.5c0-8.16-.06-16.32,0-24.48,0-2-.56-3.95,1.3-5.84,11.66-11.81,36.48-5.78,40.84,10.22C1283.07,308.37,1282.26,322.58,1279.46,336.55Z"/></svg>