<svg id="圖層_1" data-name="圖層 1" xmlns="http://www.w3.org/2000/svg" viewBox="0 0 1625.16 425.72"><path d="M573.07,193.83c-.22,28.41.79,56.83-.91,85.22-.83,14-4.15,27.22-12.12,39a41.41,41.41,0,0,1-18,15.22c-2.19.95-4.73,2.62-7,.64s-1.07-4.7-.42-7c1.65-5.9,3.59-11.72,4.63-17.79a155.31,155.31,0,0,0,2.06-25.3q.47-83,.9-166c0-2.06,1-5.06-1-6-2.46-1.09-4,1.91-5.37,3.5-20.12,23.23-27.95,50-22.62,80.36a38.42,38.42,0,0,0,5.79,13.67c1,1.54,1.92,3.1,2.76,4.72,1,1.87,1.22,3.93,0,5.68-1.41,2-3.53,1.45-5.5.93-9.77-2.62-17.19-8.61-23-16.59-9.73-13.42-10.6-28.21-6.06-43.67,8.15-27.76,24.15-49.51,49.14-64.56,11-6.6,21.25-4.52,31.5,1.36,3.77,2.16,5.42,5.31,5.4,9.85C573,136,573.07,164.92,573.07,193.83Z"/><path d="M1610.44,255.88c-5-.87-5.42,3.84-6.39,7.23-2,7-3.12,14.29-6.9,20.69-4.53,7.69-11.71,7.83-16.45.24-3.5-5.61-4.9-12-5.57-18.43-2.5-23.88-1.5-47.81-.5-71.71.68-16.11-1.11-19.49-16.15-25.31a52.24,52.24,0,0,0-6.63-2.14c-8.37-2-12.84.28-16.16,8.3a369.55,369.55,0,0,0-12.64,35.59c-3.45,11.49-6,23.19-8.39,35-2.39-18.55-3.09-37.12-3.35-55.72-.18-13.86-5.43-20.3-19-23.18-9.68-2-12.77-.66-17.23,8.14-5,9.94-8.28,20.59-11.87,31.1-2,5.71-3.87,11.44-5.81,17.16-.65-14.25-.65-28.29-.64-42.34,0-9.15-.7-10.11-9.47-12.24a95.81,95.81,0,0,0-9.76-2c-7.61-1-9.23.44-9.31,8-.29,26.43-.21,52.86-1,79.27-.36,12.17-5.06,23.35-12.91,32.76-6.15,7.37-14.42,5.69-17.87-3.29-2.15-5.63-2.77-11.59-3.19-17.57-1.81-26.26-.11-52.5.62-78.73.37-13.26-.89-15.33-13.94-18a36.83,36.83,0,0,0-8.43-.78c-4.44.15-7.12,2.4-7.14,7.18,0,1,.62,2.25-.7,3-13.6-15.59-30-19.36-45.17-10.48-7.56,4.43-12.83,11-17,18.48-14.3,25.22-15.27,52.44-11.74,80.28,1.15,9-2.33,16.26-8.85,22-4.53,4-10.13,3.15-14.25-1.32-3.36-3.65-5.07-8.15-6.21-12.87-4.29-17.83-2.84-35.62.54-53.37,1.8-9.45,4.32-18.78,5.57-28.29s-4.59-15.54-14.12-16a29.64,29.64,0,0,0-6.44.52c-9.41,1.68-18.79,3.47-28.73,5.32.35-3,.68-5.27.86-7.55.76-9.46-5.19-15.7-14.68-15.22-8.86.44-15.06,4.9-18.3,13.1-3.38,8.56-3.84,17.11,3.36,24,2.94,2.81,3.16,5.08,2.17,8.61-6.57,23.4-17.3,44.78-31.09,64.71-.22.32-.69.46-1.63,1,0-1.76,0-3,0-4.32.26-26.92.45-53.84.82-80.76.18-13.31-.75-14.67-13.94-17.32-.82-.16-1.65-.24-2.48-.33-3.63-.37-7.27-1-10.57,1.42-3,2.19-2,5.58-2.43,9.15-1.66-1.9-2.81-3.26-4-4.57-10-10.77-24.19-14.17-37.31-8.87-9.92,4-16.45,11.63-21.47,20.68-13.54,24.42-15.43,50.75-12.59,77.83,1.07,10.26-3.39,18.39-10.73,24.94-3.86,3.44-9.46,2.35-12.9-1.69a19.21,19.21,0,0,1-3.68-7.55c-2.18-7.9-2.81-16-3-24.16-.51-23.1.39-46.19,1-69.28.36-13.09-1.79-15.57-14.9-17.7-2.77-.45-5.59-1-8.44-.47-3.54.64-5.6,2.59-5.92,6.3-.11,1.2.63,2.6-.83,3.83-.66-.78-1.28-1.51-1.91-2.23-14.82-17-37-17.39-52.31-.84a70.37,70.37,0,0,0-15.62,27.48c-4.2,13.58-5.54,27.56-6.33,41.71-.82,14.61-6.92,27.31-17.35,37.55-7.68,7.56-13.83,5.92-17.66-4.09-2.71-7.06-3.58-14.48-3.72-22-.56-30.76.65-61.48,2-92.19.12-2.84,1-3.58,3.75-3.59,10.15,0,20.31-.6,30.45-.38,5.22.12,7.69-2.24,8.88-6.72a47,47,0,0,0,1.16-6.33c.53-4.18-1.33-6-5.61-6.23-10.8-.49-21.59-1.45-32.4-1.8-4.16-.13-5.81-1-5.41-5.61.79-9.26.65-18.6,1.37-27.87.36-4.51-1.47-6.81-5.35-8.28a88.1,88.1,0,0,0-15.81-4.42c-8.68-1.52-11.32.42-11.72,9.18-.48,10.45-.9,20.92-1.1,31.38-.06,2.93-.68,4.12-3.89,3.9-6.48-.45-13-.43-19.47-.74-9.49-.45-11,.56-13.2,9.94a33.87,33.87,0,0,0-.67,7.4c0,3.39,1.59,5,5.24,5.06,8.49.08,17,.67,25.46.65,3.62,0,4.73.83,4.66,4.65-.3,18.61-.63,37.24-.22,55.84.34,16.15-5.71,29.71-15,42.24-2.41,3.23-4.87,6.5-8.69,8.85,3.05-16-3-28.31-14.43-38.46-9-8-18.77-14.86-28.44-21.9-3.13-2.27-3.48-3.64-.95-6.73,5.71-7,10.17-14.8,12.27-23.66,2.38-10.1-2.34-16.15-12.71-16.69-13.26-.7-22.67,5.62-29,16.69s-6.68,22.12,1.68,32.52c1.48,1.84,1.56,3.23.45,5.29-9.08,17-18.32,33.85-28.84,50-2.45,3.76-5,7.45-8.59,10.3-4.46,3.59-7.15,2.83-8.69-2.61-1.64-5.8-1.75-11.8-1.84-17.78-.3-21.95.78-43.86,1.76-65.78.66-14.58-15.49-28.44-30.1-26-8.19,1.39-14.22,6.16-19.4,12.21-9.33,10.89-15,23.77-20.08,37-2.91,7.66-5.61,15.39-8.41,23.08-.64-18.06-.66-35.95-.63-53.84,0-13.59-.9-14.8-14.24-17.79a43.74,43.74,0,0,0-5.91-.92c-5.32-.46-7,1-7.07,6.31q-.37,55.84-.64,111.68a46.9,46.9,0,0,0,2.16,15.73c1.44,4.13,3.94,7.48,8.46,8.33a39.18,39.18,0,0,0,13.41.43c3.52-.54,5.29-2.32,5.59-5.84.92-10.62,3.4-20.94,6.15-31.21,6.62-24.78,14.9-48.86,29.84-70.1,2.28-3.26,4.93-6.26,7.48-9.32.71-.86,1.57-1.94,2.92-1.27,1.14.57.67,1.76.64,2.68-.07,3-.29,6-.38,9-.72,23.91-2.95,47.79-1.48,71.74.49,8,1.49,15.88,4.76,23.28,4.49,10.18,13.28,13.84,23.78,10,5.73-2.11,10.45-5.77,14.79-9.93,8.36-8,14.84-17.44,20.74-27.31,8.68-14.53,17.38-29,26.25-43.84,8,7.4,16.32,14.05,23,22.42,5.45,6.85,8.64,14.47,7.67,23.49-1.4,13-11.65,18.73-23.25,12.64-3.65-1.91-6.92-4.56-10.37-6.87-5.27-3.52-7.71-3.27-12.19,1.26a29.74,29.74,0,0,0-6.59,11c-1.65,4.48-.4,7.77,3.37,10.33a45.24,45.24,0,0,0,15.58,6.37c26.68,6.08,49.83.64,68-20.82A108.55,108.55,0,0,0,846,260.9c.46-1,.35-2.89,2.55-2.49.42,2.73.81,5.5,1.29,8.25,1.88,10.71,4.86,21,11.48,29.9,8.3,11.21,27.26,18.43,42.14,3.35a76.66,76.66,0,0,0,15.45-23c.65-1.46.74-3.29,2.41-4.32,5.14,16.66,12.55,32,31.71,35.16,22.25,3.65,36.52-9,47.46-27.23,2.77,14.55,10.35,24.67,24.74,27.27,17.56,3.18,27.69-7.33,34.9-21.91,16.57,31.57,51.11,28.06,70.37,1.64,1.72,11.93,1.72,11.93-6.3,19.37-10.61,9.85-21.53,19.36-31.57,29.79-7.87,8.17-15.33,16.67-19.48,27.45-7.87,20.43,1.27,39.28,22.1,45.73,23.67,7.34,47.7-5.41,56.31-29.91a119.45,119.45,0,0,0,6.84-36.56c.4-15.11.11-30.24,0-45.37a9.45,9.45,0,0,1,2.4-6.73c19.43-22.82,34.42-48.32,46-75.91,2.15-5.13,2.25-12.53,6.79-14.89s11.39-.76,17.19-1.2c4.4-.34,4.88,1.15,4,5.19-4.85,21.16-7.63,42.53-4.23,64.22,2.12,13.52,7.16,25.59,19,33.73,14,9.68,29.59,7.49,40.36-5.76,2.31-2.85,4.2-6,6.39-9.23.47.69.86,1.22,1.2,1.78s.78,1.47,1.24,2.15c8.19,12.17,19.29,18.57,34.27,16.75,14.15-1.72,24.49-9.56,32.43-21,1.47-2.1,2.82-4.27,4.5-6.82,3.57,16.14,13.39,26.1,26.93,27.86,16.27,2.12,24.61-7.92,31.15-21.88.44,5,1,8.44,1,11.91-.05,4.94,2.84,7.13,7,8.45a41.11,41.11,0,0,0,17.74,1.51c7-.87,8.42-2.31,8.7-9.48.47-12.28.39-24.61,2-36.82,2.63-20,8.23-39.22,17.9-57.1.69-1.28,1.31-3.28,2.9-3,2,.34,1.13,2.47,1.16,3.82.39,16.29,1.48,32.54,3.14,48.74,1,9.73,2.09,19.5,4.92,28.92,3.33,11.11,13.44,16.69,24.61,13.77,3.33-.88,5.53-2.62,5.63-6.53a226.75,226.75,0,0,1,19.69-86.26c.6-1.37.67-3.25,2.62-4,0,4.16.08,8.1,0,12-.5,19-.38,37.9,2.4,56.7,1.8,12.19,5.49,23.67,15.24,32.13,14.39,12.48,33.53,9.06,42.55-7.61,4.82-8.91,6.93-18.64,7.73-28.62C1615,261.29,1615.1,256.69,1610.44,255.88ZM988.6,270.12c-2.52,6.4-5.83,12.33-11.57,16.49-7.36,5.33-14.64,4.16-19.84-3.27-4-5.7-5.83-12.26-6.87-19a133.71,133.71,0,0,1,3.41-57.21,39.27,39.27,0,0,1,6.3-12.89c9.11-12.19,23.91-10.72,30.27,3.13,4.69,10.23,4.77,21.26,5,30.27C995,243.4,993.71,257.09,988.6,270.12Zm134,.08c-2.17,6-5.26,11.47-10.25,15.64-7.82,6.53-16.08,5.3-21.61-3.27-4.44-6.87-5.85-14.75-6.89-22.65-.66-5.09-.72-10.26-1-13.88.47-14,1.52-26.37,5.63-38.29,1.91-5.54,4.36-10.78,8.35-15.14,9.65-10.55,23.33-8.09,28.64,5.14,2.25,5.6,3.09,11.52,3.53,17.5C1130.38,234,1129,252.39,1122.57,270.2Zm4.86,110.17c-2.06,7.1-5.12,13.65-12.62,16.9-11.62,5-22.28-1.71-22.42-14.35-.1-9,3.51-16.76,8.07-24.15,8.51-13.81,19.84-25.25,32.07-37.44C1132.8,341.89,1133,361.39,1127.43,380.37Zm229.86-109.15c-2.07,5.11-4.75,9.87-8.87,13.67-8.42,7.81-17.34,6.56-23.21-3.3-4.18-7-5.58-14.88-6.29-22.84-1.5-17-.84-33.86,3.53-50.43,1.62-6.13,4.2-11.9,8.72-16.56,8.7-9,21.22-7.44,27.12,3.56,5.77,10.76,5.93,22.63,6.09,32.49C1364.37,244,1362.68,257.92,1357.29,271.22Z"/><path d="M409.12,127a113.94,113.94,0,0,0-1.3-18.39c-9-55.31-55.12-94.72-111.21-94.84-58-.11-116,0-174.08-.05a102.46,102.46,0,0,0-18.37,1.44C47.68,25.46,10.06,70.59,10,128q0,42.65,0,85.3c0,28.59,0,57.19,0,85.79a110.9,110.9,0,0,0,1.39,19.37c9.83,56,55.36,94.33,112.13,94.38q86,.07,172.08,0a111.89,111.89,0,0,0,25.23-2.58c52.89-12.16,88.19-56.37,88.26-110.68Q409.18,213.32,409.12,127Zm-32,172.46c-.05,46.34-35.05,81.38-81.33,81.42q-86.29.07-172.58,0C77,380.87,42,345.8,42,299.46q-.06-43.15,0-86.3,0-42.89,0-85.79c.06-46.68,35-81.63,81.58-81.66q86,0,172.08,0c46.61,0,81.51,35,81.55,81.69Q377.22,213.44,377.16,299.49Z"/><path d="M313.43,133.46a23.92,23.92,0,1,1,23.82-24.28A24,24,0,0,1,313.43,133.46Z"/><path d="M210.05,117.54c-53-.05-96.27,42.77-96.25,95.15a95.81,95.81,0,0,0,96,96.37c52.57,0,95.39-42.95,95.51-95.88C305.44,160.86,262.33,117.59,210.05,117.54Zm-.41,159.62A63.85,63.85,0,1,1,210,149.47c35.14,0,63.63,29,63.45,64.49C273.22,248.59,244.36,277.2,209.64,277.16Z"/></svg>